<?xml version="1.0" encoding="UTF-8" standalone="no"?>
<!DOCTYPE svg PUBLIC "-//W3C//DTD SVG 1.1//EN"
 "http://www.w3.org/Graphics/SVG/1.1/DTD/svg11.dtd">
<!-- Generated by graphviz version 2.40.1 (20161225.0304)
 -->
<!-- Title: G Pages: 1 -->
<svg width="142pt" height="260pt"
 viewBox="0.00 0.00 142.05 260.00" xmlns="http://www.w3.org/2000/svg" xmlns:xlink="http://www.w3.org/1999/xlink">
<g id="graph0" class="graph" transform="scale(1 1) rotate(0) translate(4 256)">
<title>G</title>
<polygon fill="#ffffff" stroke="transparent" points="-4,4 -4,-256 138.0502,-256 138.0502,4 -4,4"/>
<!-- Empty -->
<g id="node1" class="node">
<title>Empty</title>
<ellipse fill="none" stroke="#000000" cx="92.9758" cy="-234" rx="36.5786" ry="18"/>
<text text-anchor="middle" x="92.9758" y="-229.8" font-family="Times,serif" font-size="14.00" fill="#000000">Empty</text>
</g>
<!-- Updating -->
<g id="node2" class="node">
<title>Updating</title>
<ellipse fill="none" stroke="#000000" cx="46.9758" cy="-162" rx="46.9516" ry="18"/>
<text text-anchor="middle" x="46.9758" y="-157.8" font-family="Times,serif" font-size="14.00" fill="#000000">Updating</text>
</g>
<!-- Empty&#45;&gt;Updating -->
<g id="edge1" class="edge">
<title>Empty&#45;&gt;Updating</title>
<path fill="none" stroke="#000000" d="M81.8405,-216.5708C76.4,-208.0553 69.7399,-197.6308 63.7038,-188.183"/>
<polygon fill="#000000" stroke="#000000" points="66.5014,-186.0608 58.168,-179.5182 60.6025,-189.8296 66.5014,-186.0608"/>
</g>
<!-- Updating&#45;&gt;Updating -->
<g id="edge3" class="edge">
<title>Updating&#45;&gt;Updating</title>
<path fill="none" stroke="#000000" d="M79.7393,-175.0254C96.6806,-177.0293 111.9516,-172.6875 111.9516,-162 111.9516,-153.4834 102.2543,-148.9964 89.7422,-148.5389"/>
<polygon fill="#000000" stroke="#000000" points="89.5775,-145.0427 79.7393,-148.9746 89.8822,-152.0361 89.5775,-145.0427"/>
</g>
<!-- Filled -->
<g id="node3" class="node">
<title>Filled</title>
<ellipse fill="none" stroke="#000000" cx="46.9758" cy="-90" rx="33.6421" ry="18"/>
<text text-anchor="middle" x="46.9758" y="-85.8" font-family="Times,serif" font-size="14.00" fill="#000000">Filled</text>
</g>
<!-- Updating&#45;&gt;Filled -->
<g id="edge2" class="edge">
<title>Updating&#45;&gt;Filled</title>
<path fill="none" stroke="#000000" d="M41.0234,-143.8314C40.2614,-136.0125 40.0454,-126.6923 40.3753,-118.0221"/>
<polygon fill="#000000" stroke="#000000" points="43.8762,-118.1239 41.0485,-107.9134 36.8917,-117.6587 43.8762,-118.1239"/>
</g>
<!-- Filled&#45;&gt;Updating -->
<g id="edge5" class="edge">
<title>Filled&#45;&gt;Updating</title>
<path fill="none" stroke="#000000" d="M52.9031,-107.9134C53.6769,-115.6993 53.9049,-125.01 53.5869,-133.6941"/>
<polygon fill="#000000" stroke="#000000" points="50.084,-133.6254 52.9282,-143.8314 57.0693,-134.0794 50.084,-133.6254"/>
</g>
<!-- Writing -->
<g id="node4" class="node">
<title>Writing</title>
<ellipse fill="none" stroke="#000000" cx="92.9758" cy="-18" rx="41.149" ry="18"/>
<text text-anchor="middle" x="92.9758" y="-13.8" font-family="Times,serif" font-size="14.00" fill="#000000">Writing</text>
</g>
<!-- Filled&#45;&gt;Writing -->
<g id="edge4" class="edge">
<title>Filled&#45;&gt;Writing</title>
<path fill="none" stroke="#000000" d="M57.8772,-72.937C63.4099,-64.277 70.2485,-53.5731 76.4153,-43.9207"/>
<polygon fill="#000000" stroke="#000000" points="79.3986,-45.752 81.8331,-35.4407 73.4998,-41.9833 79.3986,-45.752"/>
</g>
<!-- Writing&#45;&gt;Empty -->
<g id="edge6" class="edge">
<title>Writing&#45;&gt;Empty</title>
<path fill="none" stroke="#000000" d="M100.9324,-36.1444C113.0727,-66.2752 133.5525,-128.4231 120.9758,-180 118.6241,-189.6442 114.2243,-199.4865 109.5975,-208.0812"/>
<polygon fill="#000000" stroke="#000000" points="106.5084,-206.4326 104.5741,-216.8493 112.5822,-209.9124 106.5084,-206.4326"/>
</g>
</g>
</svg>
